<?xml version="1.0" standalone="no"?><!DOCTYPE svg PUBLIC "-//W3C//DTD SVG 1.1//EN" "http://www.w3.org/Graphics/SVG/1.1/DTD/svg11.dtd"><svg t="1668957839588" class="icon" viewBox="0 0 1024 1024" version="1.1" xmlns="http://www.w3.org/2000/svg" p-id="1068" xmlns:xlink="http://www.w3.org/1999/xlink" width="200" height="200"><path d="M512.005709 0C229.233963 0 0 229.233963 0 512.005709s229.233963 511.994291 512.005709 511.994291 512.005709-229.222546 512.005709-511.994291S794.777454 0 512.005709 0z m0 955.493561A443.624865 443.624865 0 0 1 339.403735 103.330546 443.624865 443.624865 0 0 1 684.607682 920.669454a440.576328 440.576328 0 0 1-172.601973 34.824107z" p-id="1069"></path><path d="M512.005709 199.467915a34.355979 34.355979 0 0 0-34.25322 34.25322v244.031354H233.721135a34.25322 34.25322 0 1 0 0 68.506439h244.031354v244.019937a34.25322 34.25322 0 0 0 68.506439 0V546.258928h244.031355a34.25322 34.25322 0 1 0 0-68.506439H546.258928V233.721135a34.355979 34.355979 0 0 0-34.253219-34.25322z" p-id="1070"></path></svg>