<?xml version="1.0" standalone="no"?><!DOCTYPE svg PUBLIC "-//W3C//DTD SVG 1.1//EN" "http://www.w3.org/Graphics/SVG/1.1/DTD/svg11.dtd"><svg t="1668957858181" class="icon" viewBox="0 0 1024 1024" version="1.1" xmlns="http://www.w3.org/2000/svg" p-id="1212" xmlns:xlink="http://www.w3.org/1999/xlink" width="200" height="200"><path d="M512.005709 68.506439A443.624865 443.624865 0 0 1 684.607682 920.669454 443.624865 443.624865 0 0 1 339.403735 103.330546 440.576328 440.576328 0 0 1 512.005709 68.506439m0-68.506439C229.233963 0 0 229.233963 0 512.005709s229.233963 511.994291 512.005709 511.994291 512.005709-229.222546 512.005709-511.994291S794.777454 0 512.005709 0z" p-id="1213"></path><path d="M790.290283 477.752489H233.721135a34.25322 34.25322 0 1 0 0 68.506439h556.569148a34.25322 34.25322 0 1 0 0-68.506439z" p-id="1214"></path></svg>